HIERARCHY
ROOT joint1
{
  OFFSET -2.24343 25.1844 -2.1224
  CHANNELS 6 Xposition Yposition Zposition Zrotation Xrotation Yrotation
  JOINT joint2
  {
    OFFSET 0 -16 0
    CHANNELS 6 Xposition Yposition Zposition Zrotation Xrotation Yrotation
    End Site
    {
      OFFSET 0 0 0
    }
  }
}
MOTION
Frames:	70
Frame Time:	0.0166667
-2.24343 25.1844 -2.12232 24.0718 1.49038 -9.69038 8.88178e-016 -16 -1.77636e-015 3.37934e-015 1.98785e-015 -3.18055e-015 
-2.24713 25.1834 -2.12232 24.0979 1.49038 -9.69038 -8.88178e-016 -16 0 3.72721e-015 0 -3.18055e-015 
-2.25318 25.1816 -2.12232 24.1407 1.49038 -9.69038 -8.88178e-016 -16 0 1.98785e-016 9.93923e-016 -1.59028e-015 
-2.25792 25.1797 -2.12232 24.1735 1.49038 -9.69038 -1.77636e-015 -16 -8.88178e-016 -2.48481e-015 -7.95139e-016 -0 
-2.26223 25.1776 -2.12232 24.2051 1.49038 -9.69038 8.88178e-016 -16 -1.77636e-015 6.95746e-016 -7.95139e-016 -3.18055e-015 
-2.26573 25.1757 -2.12232 24.2354 1.49038 -9.69038 -8.88178e-016 -16 -1.77636e-015 7.45443e-016 1.98785e-016 -3.18055e-015 
-2.26844 25.1739 -2.12232 24.2652 1.49038 -9.69038 0 -16 -8.88178e-016 3.67752e-015 0 1.59028e-015 
-2.27006 25.1719 -2.12232 24.2952 1.49038 -9.69038 0 -16 -8.88178e-016 5.46658e-016 7.95139e-016 1.59028e-015 
-2.27112 25.17 -2.12232 24.3251 1.49038 -9.69038 -8.88178e-016 -16 0 6.95746e-015 7.95139e-016 -1.59028e-015 
-2.27219 25.1681 -2.12232 24.3552 1.49038 -9.69038 8.88178e-016 -16 -8.88178e-016 3.57812e-015 3.97569e-016 -3.18055e-015 
-2.27281 25.1662 -2.12232 24.3852 1.49038 -9.69038 -8.88178e-016 -16 -8.88178e-016 3.67752e-015 3.97569e-016 -1.59028e-015 
-2.27294 25.1643 -2.12232 24.4152 1.49038 -9.69038 -8.88178e-016 -16 -8.88178e-016 -2.43511e-015 -9.93923e-016 -3.18055e-015 
-2.27295 25.1623 -2.12232 24.4452 1.49038 -9.69038 -8.88178e-016 -16 -1.77636e-015 6.95746e-016 -7.95139e-016 -3.18055e-015 
-2.27263 25.1604 -2.12232 24.4753 1.49038 -9.69038 -8.88178e-016 -16 0 -2.5345e-015 -2.18663e-015 -1.59028e-015 
-2.27192 25.1584 -2.12232 24.5053 1.49038 -9.69038 0 -16 -8.88178e-016 -2.38542e-015 -1.98785e-016 -1.59028e-015 
-2.27101 25.1565 -2.12232 24.5353 1.49038 -9.69038 -2.66454e-015 -16 -8.88178e-016 6.95746e-016 -1.98785e-016 -3.18055e-015 
-2.26985 25.1545 -2.12232 24.5653 1.49038 -9.69038 -8.88178e-016 -16 0 4.96962e-016 -1.19271e-015 -1.59028e-015 
-2.26847 25.1522 -2.12232 24.5953 1.49038 -9.69038 -8.88178e-016 -16 -8.88178e-016 5.46658e-016 -3.97569e-016 -1.59028e-015 
-2.26688 25.1497 -2.12232 24.6254 1.49038 -9.69038 0 -16 -8.88178e-016 5.46658e-016 0 -0 
-2.2651 25.1472 -2.12232 24.6554 1.49038 -9.69038 -8.88178e-016 -16 -8.88178e-016 -5.56597e-015 3.97569e-016 -3.18055e-015 
-2.26314 25.1447 -2.12232 24.6854 1.49038 -9.69038 8.88178e-016 -16 -8.88178e-016 -2.68359e-015 1.59028e-015 -1.59028e-015 
-2.26101 25.1421 -2.12232 24.7154 1.49038 -9.69038 8.88178e-016 -16 -1.77636e-015 -5.86415e-015 -1.19271e-015 -3.18055e-015 
-2.25875 25.1396 -2.12232 24.7454 1.49038 -9.69038 -2.66454e-015 -16 -1.77636e-015 8.44835e-016 -9.93923e-016 -1.59028e-015 
-2.25636 25.1371 -2.12232 24.7755 1.49038 -9.69038 -8.88178e-016 -16 0 7.10655e-015 -3.97569e-016 -1.59028e-015 
-2.25387 25.1345 -2.12232 24.8055 1.49038 -9.69038 0 -16 -1.77636e-015 6.4605e-016 -1.98785e-016 -0 
-2.25127 25.132 -2.12232 24.8355 1.49038 -9.69038 -8.88178e-016 -16 -1.77636e-015 -2.38542e-015 -7.95139e-016 -1.59028e-015 
-2.24861 25.1293 -2.12232 24.8655 1.49038 -9.69038 0 -16 -8.88178e-016 -2.43511e-015 0 -1.59028e-015 
-2.24588 25.1267 -2.12232 24.8956 1.49038 -9.69038 0 -16 -8.88178e-016 4.96962e-016 -3.97569e-016 -1.59028e-015 
-2.24311 25.124 -2.12232 24.9256 1.49038 -9.69038 0 -16 -1.77636e-015 -6.06293e-015 9.93923e-016 -3.18055e-015 
-2.24032 25.1213 -2.12232 24.9556 1.49038 -9.69038 0 -16 0 3.97569e-016 5.96354e-016 -1.59028e-015 
-2.23752 25.1186 -2.12232 24.9856 1.49038 -9.69038 -8.88178e-016 -16 0 3.67752e-015 1.78906e-015 -1.59028e-015 
-2.23472 25.116 -2.12232 25.0156 1.49038 -9.69038 -1.77636e-015 -16 -8.88178e-016 5.96354e-016 0 -1.59028e-015 
-2.23195 25.1133 -2.12232 25.0457 1.49038 -9.69038 0 -16 -1.77636e-015 3.926e-015 0 -1.59028e-015 
-2.22922 25.1105 -2.12232 25.0757 1.49038 -9.69038 0 -16 -1.77636e-015 6.95746e-016 -5.96354e-016 -1.59028e-015 
-2.22655 25.1076 -2.12232 25.1057 1.49038 -9.69038 1.77636e-015 -16 -8.88178e-016 4.12478e-015 3.97569e-016 -0 
-2.22395 25.1046 -2.12232 25.1357 1.49038 -9.69038 1.77636e-015 -16 0 -2.43511e-015 -5.96354e-016 1.59028e-015 
-2.22145 25.1019 -2.12232 25.1657 1.49038 -9.69038 0 -16 -1.77636e-015 -2.28602e-015 -1.39149e-015 -1.59028e-015 
-2.21904 25.0995 -2.12232 25.1958 1.49038 -9.69038 0 -16 -8.88178e-016 -3.03147e-015 7.95139e-016 -4.77083e-015 
-2.21677 25.0975 -2.12232 25.2258 1.49038 -9.69038 0 -16 -8.88178e-016 6.4605e-016 -7.95139e-016 -1.59028e-015 
-2.21463 25.0959 -2.12232 25.2558 1.49038 -9.69038 -1.77636e-015 -16 -8.88178e-016 6.4605e-016 -1.98785e-016 -1.59028e-015 
-2.21265 25.0943 -2.12232 25.2859 1.49038 -9.69038 0 -16 -8.88178e-016 6.95746e-016 1.19271e-015 -1.59028e-015 
-2.21084 25.0928 -2.12232 25.3159 1.49038 -9.69038 0 -16 -1.77636e-015 4.96962e-016 0 -0 
-2.20924 25.0912 -2.12232 25.3459 1.49038 -9.69038 0 -16 -1.77636e-015 1.98785e-016 1.78906e-015 -0 
-2.20785 25.0897 -2.12232 25.3759 1.49038 -9.69038 0 -16 -8.88178e-016 5.46658e-016 7.95139e-016 -3.18055e-015 
-2.20669 25.0882 -2.12232 25.4059 1.49038 -9.69038 0 -16 -8.88178e-016 -2.68359e-015 -1.39149e-015 -1.59028e-015 
-2.20578 25.0866 -2.1223 25.4359 1.49038 -9.69038 -1.77636e-015 -16 -8.88178e-016 -2.43511e-015 5.96354e-016 -1.59028e-015 
-2.20513 25.0851 -2.12227 25.4659 1.49038 -9.69038 1.77636e-015 -16 -1.77636e-015 3.926e-015 5.96354e-016 -0 
-2.20478 25.0836 -2.12224 25.4958 1.49038 -9.69038 -1.77636e-015 -16 -8.88178e-016 3.72721e-015 -3.97569e-016 1.59028e-015 
-2.20468 25.0821 -2.12221 25.5258 1.49038 -9.69038 -1.77636e-015 -16 -1.77636e-015 3.8763e-015 -1.39149e-015 -3.18055e-015 
-2.2047 25.0807 -2.12217 25.5558 1.49038 -9.69038 0 -16 0 4.96962e-016 -9.93923e-016 -0 
-2.20485 25.0792 -2.12214 25.5857 1.49038 -9.69038 1.77636e-015 -16 -1.77636e-015 3.67752e-015 1.98785e-015 -0 
-2.20672 25.0777 -2.12211 25.6157 1.49038 -9.69038 -1.77636e-015 -16 -8.88178e-016 3.67752e-015 0 -0 
-2.21007 25.0763 -2.12208 25.6457 1.49038 -9.69038 1.77636e-015 -16 -8.88178e-016 -2.6339e-015 -3.97569e-016 -1.59028e-015 
-2.21372 25.0748 -2.12206 25.6757 1.49038 -9.69038 0 -16 -8.88178e-016 -2.6339e-015 1.39149e-015 -0 
-2.21768 25.0734 -2.12203 25.7056 1.49038 -9.69038 3.55271e-015 -16 -1.77636e-015 3.47873e-016 3.97569e-016 -3.18055e-015 
-2.22147 25.072 -2.122 25.735 1.49038 -9.69038 0 -16 -1.77636e-015 6.95746e-016 5.96354e-016 -3.18055e-015 
-2.22538 25.0705 -2.12198 25.7649 1.49038 -9.69038 -1.77636e-015 -16 -1.77636e-015 5.46658e-016 -1.98785e-016 -3.18055e-015 
-2.23072 25.0688 -2.12195 25.8044 1.49038 -9.69038 -1.77636e-015 -16 -8.88178e-016 4.47266e-016 -1.19271e-015 -1.59028e-015 
-2.23401 25.0675 -2.12193 25.829 1.49038 -9.69038 3.55271e-015 -16 0 6.95746e-016 -2.78299e-015 -1.59028e-015 
-2.234 25.0673 -2.12191 25.8295 1.49038 -9.69038 0 -16 0 -2.68359e-015 0 -0 
-2.23394 25.0672 -2.12189 25.8296 1.49038 -9.69038 -1.77636e-015 -16 -8.88178e-016 7.45443e-016 -1.98785e-016 -1.59028e-015 
-2.23053 25.0681 -2.12193 25.806 1.49038 -9.69038 0 -16 -8.88178e-016 4.96962e-016 -5.96354e-016 -3.18055e-015 
-2.22503 25.0697 -2.122 25.7671 1.49038 -9.69038 0 -16 0 2.98177e-016 -1.19271e-015 -0 
-2.22085 25.0708 -2.12205 25.7375 1.49038 -9.69038 0 -16 -8.88178e-016 5.46658e-016 -1.98785e-016 -1.59028e-015 
-2.21675 25.072 -2.1221 25.7083 1.49038 -9.69038 0 -16 -8.88178e-016 6.95746e-016 -3.97569e-016 -1.59028e-015 
-2.21263 25.0731 -2.12215 25.6788 1.49038 -9.69038 0 -16 -8.88178e-016 -5.41688e-015 -1.59028e-015 -1.59028e-015 
-2.20851 25.0743 -2.12221 25.6494 1.49038 -9.69038 1.77636e-015 -16 -8.88178e-016 3.8763e-015 -3.97569e-016 -3.18055e-015 
-2.20406 25.0754 -2.12227 25.62 1.49038 -9.69038 0 -16 -8.88178e-016 6.4605e-016 1.98785e-016 -1.59028e-015 
-2.20027 25.0766 -2.12231 25.5905 1.49038 -9.69038 1.77636e-015 -16 -1.77636e-015 -2.68359e-015 -1.19271e-015 -1.59028e-015 
-2.19845 25.0777 -2.12231 25.561 1.49038 -9.69038 1.77636e-015 -16 -1.77636e-015 9.93923e-017 1.98785e-016 -3.18055e-015 
